<svg width="40" height="40" viewBox="0 0 40 40" fill="none" xmlns="http://www.w3.org/2000/svg">
<path d="M36.3636 1.17647C34.3455 0.352941 32.1273 0 30 0C26.4545 0 22.6364 0.941176 20 3.52941C17.3636 0.941176 13.5455 0 10 0C6.45455 0 2.63636 0.941176 0 3.52941V38C0 38.5882 0.454545 39.1765 0.909091 39.1765C1.09091 39.1765 1.18182 39.0588 1.36364 39.0588C3.81818 37.5294 7.36364 36.4706 10 36.4706C13.5455 36.4706 17.3636 37.4118 20 40C22.4545 38 26.9091 36.4706 30 36.4706C33 36.4706 36.0909 37.1765 38.6364 38.9412C38.8182 39.0588 38.9091 39.0588 39.0909 39.0588C39.5455 39.0588 40 38.4706 40 37.8824V3.52941C38.9091 2.47059 37.7273 1.76471 36.3636 1.17647ZM36.3636 32.9412C34.3636 32.1176 32.1818 31.7647 30 31.7647C26.9091 31.7647 22.4545 33.2941 20 35.2941V8.23529C22.4545 6.23529 26.9091 4.70588 30 4.70588C32.1818 4.70588 34.3636 5.05882 36.3636 5.88235V32.9412Z" fill="url(#paint0_linear_71_2)"/>
<path d="M30.0001 14.1177C31.6001 14.1177 33.1455 14.3294 34.5455 14.7294V11.153C33.1091 10.8 31.5637 10.5883 30.0001 10.5883C26.9091 10.5883 24.1091 11.2706 21.8182 12.5412V16.4471C23.8728 14.9412 26.7273 14.1177 30.0001 14.1177Z" fill="url(#paint1_linear_71_2)"/>
<path d="M21.8182 18.8V22.7059C23.8728 21.2 26.7273 20.3765 30.0001 20.3765C31.6001 20.3765 33.1455 20.5883 34.5455 20.9883V17.4118C33.1091 17.0589 31.5637 16.8471 30.0001 16.8471C26.9091 16.8471 24.1091 17.553 21.8182 18.8Z" fill="url(#paint2_linear_71_2)"/>
<path d="M30.0001 23.1294C26.9091 23.1294 24.1091 23.8117 21.8182 25.0823V28.9882C23.8728 27.4823 26.7273 26.6588 30.0001 26.6588C31.6001 26.6588 33.1455 26.8706 34.5455 27.2706V23.6941C33.1091 23.3176 31.5637 23.1294 30.0001 23.1294Z" fill="url(#paint3_linear_71_2)"/>
<defs>
<linearGradient id="paint0_linear_71_2" x1="20" y1="0" x2="20" y2="40" gradientUnits="userSpaceOnUse">
<stop stop-color="#FB8C00"/>
<stop offset="1" stop-color="#E65100"/>
</linearGradient>
<linearGradient id="paint1_linear_71_2" x1="28.1819" y1="10.5883" x2="28.1819" y2="16.4471" gradientUnits="userSpaceOnUse">
<stop stop-color="#FB8C00"/>
<stop offset="1" stop-color="#E65100"/>
</linearGradient>
<linearGradient id="paint2_linear_71_2" x1="28.1819" y1="16.8471" x2="28.1819" y2="22.7059" gradientUnits="userSpaceOnUse">
<stop stop-color="#FB8C00"/>
<stop offset="1" stop-color="#E65100"/>
</linearGradient>
<linearGradient id="paint3_linear_71_2" x1="28.1819" y1="23.1294" x2="28.1819" y2="28.9882" gradientUnits="userSpaceOnUse">
<stop stop-color="#FB8C00"/>
<stop offset="1" stop-color="#E65100"/>
</linearGradient>
</defs>
</svg>
