<svg width="100" height="100" viewBox="0 0 100 100" fill="none" xmlns="http://www.w3.org/2000/svg">
<path d="M79.1667 0H20.8333C9.32917 0 0 9.32917 0 20.8333V79.1667C0 90.6708 9.32917 100 20.8333 100H79.1667C90.675 100 100 90.6708 100 79.1667V20.8333C100 9.32917 90.675 0 79.1667 0ZM33.3333 79.1667H20.8333V33.3333H33.3333V79.1667ZM27.0833 28.05C23.0583 28.05 19.7917 24.7583 19.7917 20.7C19.7917 16.6417 23.0583 13.35 27.0833 13.35C31.1083 13.35 34.375 16.6417 34.375 20.7C34.375 24.7583 31.1125 28.05 27.0833 28.05ZM83.3333 79.1667H70.8333V55.8167C70.8333 41.7833 54.1667 42.8458 54.1667 55.8167V79.1667H41.6667V33.3333H54.1667V40.6875C59.9833 29.9125 83.3333 29.1167 83.3333 51.0042V79.1667Z" fill="white"/>
</svg>
